# xmcd CD database file
#
# Track frame offsets:
#	150
#	65935
#	128222
#	200286
#
# Disc length: 3325 seconds
#
# Revision: 0
# Processed by: cddbd v1.5.1PL2 Copyright (c) Steve Scherf et al.
# Submitted via: CDex 1.51
#
DISCID=3a0cfb04
DTITLE=Woody Shaw - Bremen, 18 January 1983 - Disc 1
DYEAR=1983
DGENRE=Jazz
TTITLE0=You and the Night and the Music
TTITLE1=Rahsaan's Run
TTITLE2=Eastern Joy Dance
TTITLE3=Pressing the Issue
EXTD=YEAR: 1983
EXTT0=
EXTT1=
EXTT2=
EXTT3=
PLAYORDER=
